<svg xmlns="http://www.w3.org/2000/svg" width="21" height="20" fill="none" xmlns:v="https://vecta.io/nano"><path d="M.5 10c0-5.523 4.477-10 10-10s10 4.477 10 10-4.477 10-10 10-10-4.477-10-10z" fill="#2f8735"/><path d="M10.734 4.844c.345 0 .625.28.625.625v3.672h3.672c.345 0 .625.28.625.625v.469c0 .345-.28.625-.625.625h-3.672v3.672c0 .345-.28.625-.625.625h-.469c-.345 0-.625-.28-.625-.625v-3.672H5.969c-.345 0-.625-.28-.625-.625v-.469c0-.345.28-.625.625-.625h3.672V5.469c0-.345.28-.625.625-.625h.469z" fill="#fff"/></svg>